<svg xmlns="http://www.w3.org/2000/svg" viewBox="0 0 32 32">
  <rect width="32" height="32" fill="#000000"/>
  <!-- Left bracket [ -->
  <rect x="2" y="4" width="2" height="24" fill="#ffffff"/>
  <rect x="2" y="4" width="4" height="2" fill="#ffffff"/>
  <rect x="2" y="26" width="4" height="2" fill="#ffffff"/>
  <!-- M (top half) -->
  <rect x="8" y="6" width="2" height="10" fill="#ffffff"/>
  <rect x="10" y="8" width="2" height="2" fill="#ffffff"/>
  <rect x="12" y="10" width="2" height="2" fill="#ffffff"/>
  <rect x="14" y="8" width="2" height="2" fill="#ffffff"/>
  <rect x="16" y="6" width="2" height="10" fill="#ffffff"/>
  <!-- W (bottom half - M flipped) -->
  <rect x="8" y="16" width="2" height="10" fill="#ffffff"/>
  <rect x="10" y="22" width="2" height="2" fill="#ffffff"/>
  <rect x="12" y="20" width="2" height="2" fill="#ffffff"/>
  <rect x="14" y="22" width="2" height="2" fill="#ffffff"/>
  <rect x="16" y="16" width="2" height="10" fill="#ffffff"/>
  <!-- Right bracket ] -->
  <rect x="28" y="4" width="2" height="24" fill="#ffffff"/>
  <rect x="26" y="4" width="4" height="2" fill="#ffffff"/>
  <rect x="26" y="26" width="4" height="2" fill="#ffffff"/>
</svg>
